# xmcd
#
# Track frame offsets:
#	150
#	24966
#	47089
#	85422
#	109758
#	135076
#
# Disc length: 2301 seconds
#
# Revision: 10
# Processed by: cddbd v1.5.2PL0 Copyright (c) Steve Scherf et al.
# Submitted via: audiograbber 1.83.01
#
DISCID=3e08fb06
DTITLE=Foghat - The Complete Bearsville Albums Collection [CD 07) - Foghat Live
DTITLE=[remastered 2016]
DYEAR=1977
DGENRE=Rock
TTITLE0=Fool For The City [live]
TTITLE1=Home In My Hand [live]
TTITLE2=I Just Want To Make Love To You [live]
TTITLE3=Road Fever [live]
TTITLE4=Honey Hush [live]
TTITLE5=Slow Ride [live]
EXTD=
EXTT0=
EXTT1=
EXTT2=
EXTT3=
EXTT4=
EXTT5=
PLAYORDER=
